<svg width="21" height="21" viewBox="0 0 21 21" fill="none" xmlns="http://www.w3.org/2000/svg">
<path opacity="0.7" d="M3.73253 7.19034C3.73253 3.58534 6.8112 0.662912 10.6089 0.662912C14.4067 0.662913 17.4854 3.58534 17.4854 7.19034C17.4854 10.7953 14.4067 13.7178 10.6089 13.7178C6.8112 13.7178 3.73253 10.7953 3.73253 7.19034Z" fill="#0000FF"/>
<ellipse opacity="0.7" cx="7.17095" cy="13.7166" rx="6.87641" ry="6.52743" transform="rotate(-180 7.17095 13.7166)" fill="#00FF00"/>
<path opacity="0.7" d="M7.17052 13.7167C7.17052 10.1117 10.2492 7.18928 14.0469 7.18928C17.8447 7.18928 20.9233 10.1117 20.9233 13.7167C20.9233 17.3217 17.8447 20.2441 14.0469 20.2441C10.2492 20.2441 7.17052 17.3217 7.17052 13.7167Z" fill="#FF0000"/>
<path d="M13.99 12.8772C13.7106 10.8187 12.421 9.0607 10.6085 8.06543C8.796 9.0607 7.50647 10.8187 7.22705 12.8772C8.22555 13.4135 9.37937 13.7196 10.6085 13.7196C11.8377 13.7196 12.9915 13.4135 13.99 12.8772Z" fill="#EEEEEE"/>
</svg>
