<svg width="72" height="72" viewBox="0 0 72 72" fill="none" xmlns="http://www.w3.org/2000/svg">
<g clip-path="url(#clip0_618_77)">
<mask id="mask0_618_77" style="mask-type:luminance" maskUnits="userSpaceOnUse" x="0" y="0" width="72" height="72">
<path d="M71.6495 0.244385H0.154297V71.7396H71.6495V0.244385Z" fill="white"/>
</mask>
<g mask="url(#mask0_618_77)">
<path d="M3.18662 13.3L13.2096 3.27697C13.8466 2.64004 14.7104 2.28223 15.6112 2.28223H56.1924C57.0931 2.28223 57.9568 2.64004 58.5937 3.27695L68.6169 13.3C69.2537 13.9369 69.6116 14.8007 69.6116 15.7015V56.2826C69.6116 57.1832 69.2537 58.0472 68.6169 58.6841L58.5937 68.707C57.9568 69.3442 57.0931 69.702 56.1924 69.702H15.6112C14.7105 69.702 13.8466 69.3442 13.2097 68.707L3.18662 58.6841C2.54971 58.0472 2.19189 57.1832 2.19189 56.2826V15.7015C2.19189 14.8007 2.54971 13.9369 3.18662 13.3Z" stroke="#009966" stroke-width="5.66038"/>
<path d="M15.0895 33.6364L25.3597 27.0341C25.6932 26.834 26.1422 27.0756 26.1422 27.4743V31.4357C26.1422 31.9122 25.7641 32.285 25.3597 32.4872L21.0805 35.177L25.3597 37.8668C25.7712 38.0725 26.1422 38.4287 26.1422 38.9183V42.8796C26.1422 43.2782 25.6932 43.5197 25.3597 43.3198L15.0895 36.7175C14.0504 36.0679 14.0749 34.2706 15.0895 33.6364Z" fill="#009966"/>
<path d="M37.6992 25.2492C37.8541 24.7843 38.2969 24.5156 38.7751 24.5156H42.2719C42.6512 24.5156 42.8968 24.934 42.7609 25.2737L34.0068 45.0561C33.8112 45.5451 33.4526 45.7897 32.9309 45.7897H29.5075C29.1097 45.7897 28.8802 45.3775 29.0185 45.0316L37.6992 25.2492Z" fill="#009966"/>
<path d="M56.7138 36.7175L46.4436 43.3198C46.0983 43.5268 45.6611 43.2733 45.6611 42.8796V38.9183C45.6611 38.4322 46.0342 38.0714 46.4436 37.8668L50.7229 35.177L46.4436 32.4872C46.0073 32.269 45.6611 31.9476 45.6611 31.4357V27.4743C45.6611 27.0756 46.1103 26.834 46.4436 27.0341L56.7138 33.6364C57.7281 34.2703 57.7476 36.0714 56.7138 36.7175Z" fill="#009966"/>
</g>
</g>
<defs>
<clipPath id="clip0_618_77">
<rect width="72" height="72" fill="white"/>
</clipPath>
</defs>
</svg>
