<svg width="30" height="30" viewBox="0 0 30 30" fill="none" xmlns="http://www.w3.org/2000/svg">
<rect width="30" height="30" rx="15" fill="white"/>
<path d="M14.5 23.5C14.5 24.0523 14.9477 24.5 15.5 24.5C16.0523 24.5 16.5 24.0523 16.5 23.5L14.5 23.5ZM16.2071 5.79289C15.8166 5.40237 15.1834 5.40237 14.7929 5.79289L8.42893 12.1569C8.03841 12.5474 8.03841 13.1805 8.42893 13.5711C8.81946 13.9616 9.45262 13.9616 9.84315 13.5711L15.5 7.91421L21.1569 13.5711C21.5474 13.9616 22.1805 13.9616 22.5711 13.5711C22.9616 13.1805 22.9616 12.5474 22.5711 12.1569L16.2071 5.79289ZM16.5 23.5L16.5 6.5L14.5 6.5L14.5 23.5L16.5 23.5Z" fill="#06BC61"/>
</svg>
